<?xml version="1.0" encoding="utf-8"?>
<!-- Generator: Adobe Illustrator 22.1.0, SVG Export Plug-In . SVG Version: 6.00 Build 0)  -->
<svg version="1.1" id="Слой_2_1_" xmlns="http://www.w3.org/2000/svg" xmlns:xlink="http://www.w3.org/1999/xlink" x="0px"
	 y="0px" viewBox="0 0 81.6 91.7" style="enable-background:new 0 0 81.6 91.7;" xml:space="preserve">
<g>
	<path d="M81.6,25.5c0-2.4-1.3-4.7-3.4-5.8L46.4,1.5c-3.4-2-7.7-2-11.1,0L3.4,19.7c-3.2,1.9-4.3,6-2.5,9.2c0.6,1,1.4,1.9,2.5,2.5
		l7.5,4.3L3.5,40c-3.2,1.9-4.3,6-2.5,9.2c0.6,1,1.4,1.9,2.5,2.5l7.4,4.3l-7.4,4.3c-3.2,1.9-4.3,6-2.5,9.2c0.6,1,1.4,1.9,2.5,2.5
		l31.7,18.2c3.4,2,7.7,2,11.1,0L78.2,72c3.2-1.9,4.3-6,2.5-9.2c-0.6-1-1.4-1.9-2.5-2.5L70.7,56l7.4-4.3c3.2-1.9,4.3-6,2.5-9.2
		c-0.6-1-1.4-1.9-2.5-2.5l-7.4-4.3l7.4-4.3C80.3,30.2,81.6,28,81.6,25.5z M76,64.1c1.1,0.6,1.5,2,0.9,3.1c-0.2,0.4-0.5,0.7-0.9,0.9
		l-31.8,18c-2.1,1.2-4.7,1.2-6.7,0L5.6,67.9c-1.1-0.6-1.5-2-0.9-3.1c0.2-0.4,0.5-0.7,0.9-0.9l9.8-5.6l19.8,11.5c3.4,2,7.7,2,11.1,0
		l19.9-11.3L76,64.1z M76,43.9c1.1,0.6,1.5,2,0.9,3.1c-0.2,0.4-0.5,0.7-0.9,0.9l-31.8,18c-2.1,1.2-4.7,1.2-6.7,0L5.6,47.7
		c-1.1-0.6-1.5-2-0.9-3.1c0.2-0.4,0.5-0.7,0.9-0.9l9.8-5.6l19.8,11.5c3.4,2,7.7,2,11.1,0l19.9-11.3L76,43.9z M76,27.6L44.2,45.7
		c-2.1,1.2-4.7,1.2-6.7,0L5.6,27.4c-1.1-0.6-1.5-2-0.9-3.1c0.2-0.4,0.5-0.7,0.9-0.9l31.8-18c2.1-1.2,4.7-1.2,6.7,0l31.8,18.2
		c1.1,0.6,1.5,2,0.9,3.1C76.6,27.1,76.3,27.4,76,27.6z"/>
</g>
</svg>
