<?xml version="1.0" encoding="utf-8"?>
<!-- Generator: Adobe Illustrator 22.1.0, SVG Export Plug-In . SVG Version: 6.00 Build 0)  -->
<svg version="1.1" xmlns="http://www.w3.org/2000/svg" xmlns:xlink="http://www.w3.org/1999/xlink" x="0px" y="0px"
	 viewBox="0 0 439.3 137.9" style="enable-background:new 0 0 439.3 137.9;" xml:space="preserve" width="120ex">
<style type="text/css">
	.st0{fill:none;stroke:#333333;stroke-width:0.5;stroke-miterlimit:10;stroke-dasharray:6,6,6,6,6,6;}
	.st1{fill:#333333;}
	.st2{font-family:'PalatinoLinotype-BoldItalic';}
	.st3{font-size:9.4759px;}
	.st4{font-size:8.8728px;}
	.st5{font-size:7.2011px;}
	.st6{fill:none;stroke:#000000;stroke-miterlimit:10;}
	.st7{font-size:7.0693px;}
	.st8{fill:none;stroke:#000000;stroke-width:0.25;stroke-miterlimit:10;}
	.st9{font-size:9.4102px;}
	.st10{font-size:8.8112px;}
	.st11{font-size:7.1511px;}
	.st12{font-size:7.0202px;}
	.st13{font-size:7.2686px;}
	.st14{font-size:9.1229px;}
	.st15{font-size:7.4041px;}
	.st16{font-size:9.7431px;}
	.st17{opacity:0.3;fill:#333333;}
	.st18{opacity:0.3;}
	.st19{enable-background:new    ;}
	.st20{clip-path:url(#SVGID_2_);fill:none;stroke:#000000;stroke-width:0.25;stroke-miterlimit:10;}
	.st21{clip-path:url(#SVGID_4_);fill:none;stroke:#000000;stroke-width:0.25;stroke-miterlimit:10;}
	.st22{clip-path:url(#SVGID_6_);fill:none;stroke:#000000;stroke-width:0.25;stroke-miterlimit:10;}
	.st23{clip-path:url(#SVGID_8_);fill:none;stroke:#000000;stroke-width:0.25;stroke-miterlimit:10;}
	.st24{clip-path:url(#SVGID_10_);fill:none;stroke:#000000;stroke-width:0.25;stroke-miterlimit:10;}
	.st25{clip-path:url(#SVGID_12_);fill:none;stroke:#000000;stroke-width:0.25;stroke-miterlimit:10;}
	.st26{clip-path:url(#SVGID_14_);fill:none;stroke:#000000;stroke-width:0.25;stroke-miterlimit:10;}
	.st27{clip-path:url(#SVGID_16_);fill:none;stroke:#000000;stroke-width:0.25;stroke-miterlimit:10;}
	.st28{clip-path:url(#SVGID_18_);fill:none;stroke:#000000;stroke-width:0.25;stroke-miterlimit:10;}
	.st29{clip-path:url(#SVGID_20_);fill:none;stroke:#000000;stroke-width:0.25;stroke-miterlimit:10;}
	.st30{clip-path:url(#SVGID_22_);fill:none;stroke:#000000;stroke-width:0.25;stroke-miterlimit:10;}
	.st31{clip-path:url(#SVGID_24_);fill:none;stroke:#000000;stroke-width:0.25;stroke-miterlimit:10;}
</style>
<g id="Layer_2">
	<g>
		<g>
			<line class="st0" x1="63.6" y1="125.9" x2="20" y2="90"/>
			<g>
				<polygon class="st1" points="64.2,124.6 65.1,127.1 62.5,126.6 				"/>
			</g>
		</g>
	</g>
	<text transform="matrix(1 0 0 1 12.7341 24.4312)" class="st2 st3">Y</text>
	<text transform="matrix(1 0 0 1 66.0602 128.6812)" class="st2 st4">Z</text>
	<text transform="matrix(1 0 0 1 74.8405 73.941)" class="st2 st5">X</text>
	<g>
		<g>
			<line class="st0" x1="72.9" y1="70.6" x2="19.9" y2="90.1"/>
			<g>
				<polygon class="st1" points="72,69.5 74.7,69.9 73,72 				"/>
			</g>
		</g>
	</g>
	<g>
		<g>
			<line class="st0" x1="20.3" y1="23.5" x2="19.9" y2="89.9"/>
			<g>
				<polygon class="st1" points="19,23.9 20.3,21.5 21.7,23.9 				"/>
			</g>
		</g>
	</g>
	<g>
		<g>
			<line class="st6" x1="107.3" y1="46.9" x2="20" y2="89.8"/>
			<g>
				<polygon points="105.4,44.9 110.8,45.2 107.8,49.7 				"/>
			</g>
		</g>
	</g>
	<text transform="matrix(1 0 0 1 110.9655 45.9547)" class="st2 st7">V (1,1,1)</text>
	<g>
		<g>
			<line class="st8" x1="114.7" y1="40.1" x2="111.7" y2="40.1"/>
			<g>
				<polygon points="114.5,39.4 115.6,40.1 114.5,40.7 				"/>
			</g>
		</g>
	</g>
	<g>
		<g>
			<line class="st0" x1="169" y1="108.6" x2="208.9" y2="85"/>
			<g>
				<polygon class="st1" points="170,109.6 167.3,109.6 168.6,107.3 				"/>
			</g>
		</g>
	</g>
	<g>
		<g>
			<line class="st0" x1="272.6" y1="96" x2="208.9" y2="85"/>
			<g>
				<polygon class="st1" points="272.4,94.6 274.5,96.3 271.9,97.2 				"/>
			</g>
		</g>
	</g>
	<g>
		<g>
			<line class="st0" x1="207.8" y1="23" x2="208.9" y2="85"/>
			<g>
				<polygon class="st1" points="206.5,23.4 207.8,21 209.2,23.4 				"/>
			</g>
		</g>
	</g>
	<g>
		<g>
			<line class="st6" x1="231.3" y1="53" x2="208.9" y2="85"/>
			<g>
				<polygon points="228.7,52.1 233.6,49.8 233.1,55.2 				"/>
			</g>
		</g>
	</g>
	<text transform="matrix(1 0 0 1 199.8808 25.3867)" class="st2 st9">Y</text>
	<text transform="matrix(1 0 0 1 159.9501 111.1738)" class="st2 st10">Z</text>
	<text transform="matrix(1 0 0 1 267.5536 103.6415)" class="st2 st11">X</text>
	<text transform="matrix(1 0 0 1 234.2792 56.4355)" class="st2 st12">V (1,1,1)</text>
	<g>
		<g>
			<line class="st8" x1="238" y1="50.6" x2="235" y2="50.6"/>
			<g>
				<polygon points="237.8,49.9 238.9,50.6 237.8,51.3 				"/>
			</g>
		</g>
	</g>
	<g>
		<g>
			<line class="st0" x1="395.1" y1="110.3" x2="353.2" y2="115.7"/>
			<g>
				<polygon class="st1" points="394.6,109.1 397.1,110.1 394.9,111.7 				"/>
			</g>
		</g>
	</g>
	<g>
		<g>
			<line class="st0" x1="307.7" y1="61" x2="353.2" y2="115.7"/>
			<g>
				<polygon class="st1" points="306.9,62.2 306.5,59.5 309,60.5 				"/>
			</g>
		</g>
	</g>
	<g>
		<g>
			<line class="st0" x1="397.4" y1="68.3" x2="353.2" y2="115.7"/>
			<g>
				<polygon class="st1" points="396.1,67.7 398.7,66.9 398.1,69.5 				"/>
			</g>
		</g>
	</g>
	<g>
		<g>
			<line class="st6" x1="384.6" y1="20.5" x2="353.2" y2="115.7"/>
			<g>
				<polygon points="381.8,20.4 385.8,16.8 386.9,22.1 				"/>
			</g>
		</g>
	</g>
	<text transform="matrix(1 0 0 1 386.4899 16.5847)" class="st2 st13">V (1,1,1)</text>
	<g>
		<g>
			<line class="st8" x1="390.3" y1="10.5" x2="387.2" y2="10.5"/>
			<g>
				<polygon points="390.1,9.9 391.3,10.5 390.1,11.2 				"/>
			</g>
		</g>
	</g>
	<text transform="matrix(1 0 0 1 398.652 114.0476)" class="st2 st14">Z</text>
	<text transform="matrix(1 0 0 1 400.5367 69.2762)" class="st2 st15">X</text>
	<text transform="matrix(1 0 0 1 301.0504 61.2439)" class="st2 st16">Y</text>
</g>
<g id="fill">
	<polygon class="st17" points="20.2,36.5 68.9,23.3 111,45.3 103.3,98.7 57,120.2 20,90 	"/>
	<polyline class="st17" points="175.2,42.8 208,31.6 260.6,36.7 259.2,93.8 233.4,115.1 177.9,103.3 175.2,42.8 	"/>
	<polygon class="st17" points="353.2,115.7 314.6,69.3 354.4,33.2 385.8,16.8 424.2,68.1 386.1,111.6 	"/>
</g>
<g id="fill_x5F_shade">
	<polygon class="st17" points="60.9,62.7 111,45.3 103.3,98.7 57,120.2 	"/>
	<polyline class="st17" points="233.4,115.1 233.6,49.8 175.2,42.8 177.9,103.3 233.4,115.1 	"/>
	<polygon class="st17" points="385.8,111.5 342.4,57.3 385.8,16.8 424.2,68.1 	"/>
</g>
<g id="_x33_dcube">
	<g class="st18">
		<g>
			<g class="st19">
				<g class="st19">
					<defs>
						<polygon id="SVGID_1_" class="st19" points="111,45.3 103.3,98.7 65.1,73.2 68.9,23.3 						"/>
					</defs>
					<clipPath id="SVGID_2_">
						<use xlink:href="#SVGID_1_"  style="overflow:visible;"/>
					</clipPath>
					<polygon class="st20" points="111,45.3 103.3,98.7 65.1,73.2 68.9,23.3 					"/>
				</g>
				<g class="st19">
					<defs>
						<polygon id="SVGID_3_" class="st19" points="103.3,98.7 57,120.2 20,90 65.1,73.2 						"/>
					</defs>
					<clipPath id="SVGID_4_">
						<use xlink:href="#SVGID_3_"  style="overflow:visible;"/>
					</clipPath>
					<polygon class="st21" points="103.3,98.7 57,120.2 20,90 65.1,73.2 					"/>
				</g>
				<g class="st19">
					<defs>
						<polygon id="SVGID_5_" class="st19" points="57,120.2 20,90 20.2,36.5 60.9,62.7 						"/>
					</defs>
					<clipPath id="SVGID_6_">
						<use xlink:href="#SVGID_5_"  style="overflow:visible;"/>
					</clipPath>
					<polygon class="st22" points="57,120.2 20,90 20.2,36.5 60.9,62.7 					"/>
				</g>
				<g class="st19">
					<defs>
						<polygon id="SVGID_7_" class="st19" points="60.9,62.7 20.2,36.5 68.9,23.3 111,45.3 						"/>
					</defs>
					<clipPath id="SVGID_8_">
						<use xlink:href="#SVGID_7_"  style="overflow:visible;"/>
					</clipPath>
					<polygon class="st23" points="60.9,62.7 20.2,36.5 68.9,23.3 111,45.3 					"/>
				</g>
			</g>
		</g>
	</g>
	<g class="st18">
		<g>
			<g class="st19">
				<g class="st19">
					<defs>
						<polygon id="SVGID_9_" class="st19" points="260.6,36.7 259.2,93.8 208.9,85 208,31.6 						"/>
					</defs>
					<clipPath id="SVGID_10_">
						<use xlink:href="#SVGID_9_"  style="overflow:visible;"/>
					</clipPath>
					<polygon class="st24" points="260.6,36.7 259.2,93.8 208.9,85 208,31.6 					"/>
				</g>
				<g class="st19">
					<defs>
						<polygon id="SVGID_11_" class="st19" points="259.2,93.8 233.4,115.1 177.9,103.3 208.9,85 						"/>
					</defs>
					<clipPath id="SVGID_12_">
						<use xlink:href="#SVGID_11_"  style="overflow:visible;"/>
					</clipPath>
					<polygon class="st25" points="259.2,93.8 233.4,115.1 177.9,103.3 208.9,85 					"/>
				</g>
				<g class="st19">
					<defs>
						<polygon id="SVGID_13_" class="st19" points="233.4,115.1 177.9,103.3 175.2,42.8 233.6,49.8 						"/>
					</defs>
					<clipPath id="SVGID_14_">
						<use xlink:href="#SVGID_13_"  style="overflow:visible;"/>
					</clipPath>
					<polygon class="st26" points="233.4,115.1 177.9,103.3 175.2,42.8 233.6,49.8 					"/>
				</g>
				<g class="st19">
					<defs>
						<polygon id="SVGID_15_" class="st19" points="233.6,49.8 175.2,42.8 208,31.6 260.6,36.7 						"/>
					</defs>
					<clipPath id="SVGID_16_">
						<use xlink:href="#SVGID_15_"  style="overflow:visible;"/>
					</clipPath>
					<polygon class="st27" points="233.6,49.8 175.2,42.8 208,31.6 260.6,36.7 					"/>
				</g>
			</g>
		</g>
	</g>
	<g class="st18">
		<g>
			<g class="st19">
				<g class="st19">
					<defs>
						<polygon id="SVGID_17_" class="st19" points="342.4,57.3 385.8,16.8 424.2,68.1 386.1,111.6 						"/>
					</defs>
					<clipPath id="SVGID_18_">
						<use xlink:href="#SVGID_17_"  style="overflow:visible;"/>
					</clipPath>
					<polygon class="st28" points="342.4,57.3 385.8,16.8 424.2,68.1 386.1,111.6 					"/>
				</g>
				<g class="st19">
					<defs>
						<polygon id="SVGID_19_" class="st19" points="386.1,111.6 353.2,115.7 388.9,77.4 424.2,68.1 						"/>
					</defs>
					<clipPath id="SVGID_20_">
						<use xlink:href="#SVGID_19_"  style="overflow:visible;"/>
					</clipPath>
					<polygon class="st29" points="386.1,111.6 353.2,115.7 388.9,77.4 424.2,68.1 					"/>
				</g>
				<g class="st19">
					<defs>
						<polygon id="SVGID_21_" class="st19" points="353.2,115.7 314.6,69.3 354.4,33.2 388.9,77.4 						"/>
					</defs>
					<clipPath id="SVGID_22_">
						<use xlink:href="#SVGID_21_"  style="overflow:visible;"/>
					</clipPath>
					<polygon class="st30" points="353.2,115.7 314.6,69.3 354.4,33.2 388.9,77.4 					"/>
				</g>
				<g class="st19">
					<defs>
						<polygon id="SVGID_23_" class="st19" points="314.6,69.3 354.4,33.2 385.8,16.8 342.4,57.3 						"/>
					</defs>
					<clipPath id="SVGID_24_">
						<use xlink:href="#SVGID_23_"  style="overflow:visible;"/>
					</clipPath>
					<polygon class="st31" points="314.6,69.3 354.4,33.2 385.8,16.8 342.4,57.3 					"/>
				</g>
			</g>
		</g>
	</g>
</g>
</svg>
